<svg width="29" height="15" viewBox="0 0 29 15" fill="none" xmlns="http://www.w3.org/2000/svg">
<path d="M20.6876 1.15625C20.591 1.2405 20.5143 1.34073 20.4619 1.45117C20.4095 1.5616 20.3826 1.68005 20.3826 1.79969C20.3826 1.91932 20.4095 2.03778 20.4619 2.14821C20.5143 2.25865 20.591 2.35888 20.6876 2.44313L25.4314 6.61188H1.15576C0.882257 6.61188 0.619955 6.70736 0.426558 6.87731C0.233161 7.04727 0.124512 7.27777 0.124512 7.51813C0.124512 7.75848 0.233161 7.98899 0.426558 8.15894C0.619955 8.3289 0.882257 8.42438 1.15576 8.42438H25.4108L20.6876 12.5659C20.4956 12.7357 20.3878 12.9654 20.3878 13.2048C20.3878 13.4443 20.4956 13.674 20.6876 13.8438C20.8809 14.0125 21.1422 14.1073 21.4147 14.1073C21.6871 14.1073 21.9485 14.0125 22.1417 13.8438L28.7005 8.08C28.7887 8.00557 28.859 7.91622 28.9069 7.81733C28.9549 7.71844 28.9797 7.61204 28.9797 7.50453C28.9797 7.39702 28.9549 7.29063 28.9069 7.19173C28.859 7.09284 28.7887 7.00349 28.7005 6.92906L22.152 1.15625C22.0561 1.07131 21.9421 1.00389 21.8164 0.957881C21.6908 0.911872 21.556 0.888184 21.4198 0.888184C21.2837 0.888184 21.1489 0.911872 21.0232 0.957881C20.8976 1.00389 20.7835 1.07131 20.6876 1.15625Z" fill="white"/>
</svg>
