<svg width="27" height="22" viewBox="0 0 27 22" fill="none" xmlns="http://www.w3.org/2000/svg">
<g clip-path="url(#clip0_58_48)">
<path d="M20.8125 22H0V1.83337H16.3125C16.623 1.83337 16.875 2.03871 16.875 2.29171C16.875 2.54471 16.623 2.75004 16.3125 2.75004H1.125V21.0834H19.6875V11C19.6875 10.747 19.9395 10.5417 20.25 10.5417C20.5605 10.5417 20.8125 10.747 20.8125 11V22Z" fill="white"/>
<path d="M12.171 12.5414C12.0248 12.5414 11.8808 12.4951 11.7728 12.4071C11.6018 12.2677 11.559 12.0546 11.667 11.8782L13.2578 9.28537C13.2848 9.24137 13.3202 9.20104 13.3635 9.16621L24.1033 0.415708C24.4369 0.143458 24.8436 0 25.2784 0C25.9607 0 26.6025 0.359333 26.8742 0.89375C27.1335 1.40433 26.9901 1.9525 26.49 2.35996L15.7508 11.1105C15.708 11.1453 15.6585 11.1742 15.6045 11.1966L12.4225 12.4932C12.3426 12.5258 12.2565 12.5414 12.171 12.5414ZM14.2241 9.76158L13.4288 11.0582L15.0201 10.4097L25.6946 1.71187C25.8718 1.5675 25.9191 1.41029 25.8353 1.24437C25.7396 1.05783 25.5006 0.916667 25.2784 0.916667C25.1462 0.916667 25.0185 0.966167 24.8987 1.06379L14.2241 9.76158Z" fill="white"/>
<path d="M24.5007 3.79091C24.3567 3.79091 24.2127 3.746 24.1024 3.65662L22.5117 2.36C22.2923 2.18079 22.2923 1.89066 22.5117 1.71146C22.7316 1.53271 23.0877 1.53271 23.3076 1.71146L24.8984 3.00808C25.1178 3.18729 25.1178 3.47741 24.8984 3.65662C24.7887 3.74646 24.6447 3.79091 24.5007 3.79091Z" fill="white"/>
</g>
<defs>
<clipPath id="clip0_58_48">
<rect width="27" height="22" fill="white"/>
</clipPath>
</defs>
</svg>
